<svg height="48" width="48" xmlns="http://www.w3.org/2000/svg" xmlns:xlink="http://www.w3.org/1999/xlink"><linearGradient id="a" gradientUnits="userSpaceOnUse" x1="407.63" x2="407.69" y1="543.77" y2="504.13"><stop offset="0" stop-color="#c6cdd1"/><stop offset="1" stop-color="#e0e5e7"/></linearGradient><linearGradient id="b" gradientUnits="userSpaceOnUse" x1="401.58" x2="401.92" y1="513.81" y2="532.44"><stop offset="0" stop-color="#9559b6"/><stop offset="1" stop-color="#8e44ad"/></linearGradient><linearGradient id="c" gradientUnits="userSpaceOnUse" x1="417.87" x2="417.53" y1="516.47" y2="533.46"><stop offset="0" stop-color="#1d99f3"/><stop offset="1" stop-color="#2972a7"/></linearGradient><linearGradient id="d" gradientUnits="userSpaceOnUse" x1="29.439" x2="38.26" y1="26.03" y2="35.796"><stop offset="0" stop-color="#292c2f"/><stop offset="1" stop-color="#292c2f" stop-opacity="0"/></linearGradient><g transform="translate(-384.57 -499.8)"><rect fill="url(#a)" height="40" rx="3" width="40" x="388.57" y="503.8"/><text x="730.88" y="132.19"/><g transform="translate(384.57 499.8)"><path d="m4 40v1c0 1.662 1.338 3 3 3h34c1.662 0 3-1.338 3-3v-1c0 1.662-1.338 3-3 3h-34c-1.662 0-3-1.338-3-3" opacity=".15"/><path d="m38.902 23.994s-13.643 5.975-14.715 9.939l10.07 10.07h6.746c1.662 0 3-1.338 3-3v-11.908z" fill="url(#d)" opacity=".2"/></g><path d="m412.22 516.23-.861 4.291 5.211 3.256-6.703 4.189-1.15 5.732 14.854-9.902z" fill="url(#c)"/><path d="m408.57 513.8-15 10 11.514 7.676.869-4.332-5.383-3.363 6.926-4.328 1.125-5.617z" fill="url(#b)"/></g></svg>